<?xml version="1.0" encoding="UTF-8"?>
<svg version="1.1" xmlns="http://www.w3.org/2000/svg" width="44" height="44">
<path d="M0 0 C14.52 0 29.04 0 44 0 C44 14.52 44 29.04 44 44 C29.48 44 14.96 44 0 44 C0 29.48 0 14.96 0 0 Z " fill="#1D1909" transform="translate(0,0)"/>
<path d="M0 0 C14.52 0 29.04 0 44 0 C44 14.52 44 29.04 44 44 C29.48 44 14.96 44 0 44 C0 29.48 0 14.96 0 0 Z M15.6875 3.25 C14.61048828 3.87648437 14.61048828 3.87648437 13.51171875 4.515625 C12.68285156 5.00546875 11.85398437 5.4953125 11 6 C8.6696659 7.33863724 6.33476731 8.66909732 4 10 C3.73724404 13.5402436 3.57839671 17.07798133 3.4375 20.625 C3.36208984 21.62402344 3.28667969 22.62304688 3.20898438 23.65234375 C3.11894011 26.6738291 3.16829036 29.08901625 4 32 C6.664094 34.73724601 9.60467315 36.31254082 13 38 C14.25114557 38.81073487 15.50126231 39.62306128 16.75 40.4375 C20.51209154 42.24619786 21.12091919 42.11530374 25 41 C30.60650538 39.02465095 36.26045897 36.82224182 40 32 C41.22547586 28.39824299 41.43328594 25.03746334 41.4375 21.25 C41.44692627 20.32670898 41.45635254 19.40341797 41.46606445 18.45214844 C41.24564028 14.69160946 41.07149184 12.02212894 38.26708984 9.34692383 C36.2279229 8.06786196 34.18021104 7.01592241 32 6 C27.75 3.1875 27.75 3.1875 25.859375 1.91796875 C21.90967781 -0.0319868 19.17008808 1.19632461 15.6875 3.25 Z " fill="#0C161B" transform="translate(0,0)"/>
<path d="M0 0 C2.38018949 1.65290937 4.31284828 3.4101092 6.25 5.5625 C4.27 6.8825 2.29 8.2025 0.25 9.5625 C2.39072301 11.91729531 4.3894109 13.20312915 7.25 14.5625 C7.72577763 18.33568094 7.94492449 21.80885482 7.25 25.5625 C4.98747178 28.15363351 2.5550788 29.62163815 -0.75 30.5625 C-4.75133273 30.05475513 -7.49834103 27.85344155 -10.75 25.5625 C-8.12801226 23.40872436 -6.10595828 22.16177826 -2.75 21.5625 C-2.75 20.9025 -2.75 20.2425 -2.75 19.5625 C-3.8946875 19.129375 -3.8946875 19.129375 -5.0625 18.6875 C-7.75 17.5625 -7.75 17.5625 -10.75 15.5625 C-11.64148151 11.79644544 -11.60568276 8.3318367 -10.75 4.5625 C-7.80259236 1.08826104 -4.55376227 -0.72446218 0 0 Z " fill="#F3CB0B" transform="translate(23.75,6.4375)"/>
<path d="M0 0 C3.38003212 1.42688354 6.53441703 3.15874512 9.68359375 5.02734375 C10.32039063 5.39601563 10.9571875 5.7646875 11.61328125 6.14453125 C16.25932717 8.85307717 16.25932717 8.85307717 17.43359375 10.02734375 C18.80540405 16.76494199 19.53060824 24.40836155 17.43359375 31.02734375 C13.33534007 36.14356293 6.69144596 39.34520838 0.43359375 41.02734375 C-4.12820151 40.98667396 -7.57227191 38.43368627 -11.31640625 36.02734375 C-11.90550781 35.65867188 -12.49460937 35.29 -13.1015625 34.91015625 C-17.37599476 32.21775524 -17.37599476 32.21775524 -18.56640625 31.02734375 C-18.65340967 29.39261493 -18.67341688 27.7542032 -18.6640625 26.1171875 C-18.66083984 25.12783203 -18.65761719 24.13847656 -18.65429688 23.11914062 C-18.64591797 22.07822266 -18.63753906 21.03730469 -18.62890625 19.96484375 C-18.62439453 18.92005859 -18.61988281 17.87527344 -18.61523438 16.79882812 C-18.60340538 14.20827715 -18.58692314 11.61783816 -18.56640625 9.02734375 C-16.0133691 7.48832135 -13.4510069 5.97139182 -10.87890625 4.46484375 C-10.15767578 4.02720703 -9.43644531 3.58957031 -8.69335938 3.13867188 C-3.3424131 0.03561171 -3.3424131 0.03561171 0 0 Z M-14.56640625 10.02734375 C-14.56640625 11.01734375 -14.56640625 12.00734375 -14.56640625 13.02734375 C-15.22640625 13.02734375 -15.88640625 13.02734375 -16.56640625 13.02734375 C-16.56640625 17.97734375 -16.56640625 22.92734375 -16.56640625 28.02734375 C-15.90640625 28.02734375 -15.24640625 28.02734375 -14.56640625 28.02734375 C-14.48648437 28.630625 -14.4065625 29.23390625 -14.32421875 29.85546875 C-13.06416038 33.46677005 -10.23285546 34.37788589 -6.95703125 36.03125 C-3.40269194 37.51222471 -1.38588455 37.75172756 2.43359375 37.02734375 C6.29890888 35.32830413 9.9883979 33.47712834 13.43359375 31.02734375 C14.61997118 27.46821146 14.57974721 24.22919875 14.55859375 20.52734375 C14.56246094 19.85058594 14.56632812 19.17382812 14.5703125 18.4765625 C14.56421791 15.38660608 14.41799605 12.98055064 13.43359375 10.02734375 C8.49388392 5.99912799 3.17755596 2.97742942 -3.31640625 3.4296875 C-7.61718805 4.57208267 -11.38417539 6.93538895 -14.56640625 10.02734375 Z " fill="#1575A5" transform="translate(22.56640625,0.97265625)"/>
<path d="M0 0 C0 14.52 0 29.04 0 44 C-1.65 43.67 -3.3 43.34 -5 43 C-5 41.68 -5 40.36 -5 39 C-3.515 38.505 -3.515 38.505 -2 38 C-2.16209961 37.4527124 -2.32419922 36.9054248 -2.49121094 36.34155273 C-3.06911009 33.68194103 -3.12681596 31.25668868 -3.140625 28.53515625 C-3.15996094 27.48779297 -3.17929687 26.44042969 -3.19921875 25.36132812 C-3.23300995 23.16620001 -3.25129735 20.97077726 -3.25390625 18.77539062 C-3.21791395 12.15165757 -3.21791395 12.15165757 -6.546875 6.74609375 C-7.35640625 6.16988281 -8.1659375 5.59367188 -9 5 C-4.5 0 -4.5 0 0 0 Z " fill="#101110" transform="translate(44,0)"/>
<path d="M0 0 C0.66 0 1.32 0 2 0 C3.17469444 2.34938888 3.20034889 3.95073205 3.31640625 6.5703125 C3.35830078 7.46621094 3.40019531 8.36210937 3.44335938 9.28515625 C3.48267578 10.22230469 3.52199219 11.15945312 3.5625 12.125 C3.62727539 13.54232422 3.62727539 13.54232422 3.69335938 14.98828125 C3.79959072 17.32537092 3.90163176 19.6625683 4 22 C5.32 22.33 6.64 22.66 8 23 C8.1546875 23.9590625 8.1546875 23.9590625 8.3125 24.9375 C8.539375 25.618125 8.76625 26.29875 9 27 C9.99 27.33 10.98 27.66 12 28 C11.01 28.33 10.02 28.66 9 29 C9.33 29.99 9.66 30.98 10 32 C6.7 32 3.4 32 0 32 C0 21.44 0 10.88 0 0 Z " fill="#101111" transform="translate(0,12)"/>
<path d="M0 0 C0.33 0 0.66 0 1 0 C1.02690844 2.62506802 1.04679404 5.24986173 1.0625 7.875 C1.07087891 8.62136719 1.07925781 9.36773437 1.08789062 10.13671875 C1.11328125 15.7734375 1.11328125 15.7734375 0 18 C0.66 18.33 1.32 18.66 2 19 C-0.55303715 20.5390224 -3.11539935 22.05595193 -5.6875 23.5625 C-6.7693457 24.21895508 -6.7693457 24.21895508 -7.87304688 24.88867188 C-13.22208859 27.99062757 -13.22208859 27.99062757 -16.59375 28.03125 C-19.86324167 26.63003929 -22.8326739 24.8609329 -25.8125 22.9375 C-26.40998047 22.56044922 -27.00746094 22.18339844 -27.62304688 21.79492188 C-29.08636577 20.87010434 -30.54379523 19.93597935 -32 19 C-31.34 18.67 -30.68 18.34 -30 18 C-29.67 17.01 -29.34 16.02 -29 15 C-28.67 15.99 -28.34 16.98 -28 18 C-24.17874449 20.91104228 -20.22031431 22.78208673 -15.5 23.625 C-11.3516958 22.88423139 -8.4734941 21.29682939 -4.91796875 19.09375 C-3 18 -3 18 -1 18 C-0.67 12.06 -0.34 6.12 0 0 Z " fill="#156F9D" transform="translate(37,14)"/>
<path d="M0 0 C0.66 0 1.32 0 2 0 C2.04898437 0.78246094 2.09796875 1.56492187 2.1484375 2.37109375 C2.22320313 3.38300781 2.29796875 4.39492188 2.375 5.4375 C2.47941406 6.95150391 2.47941406 6.95150391 2.5859375 8.49609375 C2.72257813 9.32238281 2.85921875 10.14867187 3 11 C3.66 11.33 4.32 11.66 5 12 C5.72159424 13.64363134 6.39351421 15.31050386 7 17 C6.01 17 5.02 17 4 17 C4 18.65 4 20.3 4 22 C3.34 22 2.68 22 2 22 C0 19 0 19 0 16 C-0.66 16 -1.32 16 -2 16 C-1.85769192 14.58297487 -1.71099254 13.1663904 -1.5625 11.75 C-1.48128906 10.96109375 -1.40007813 10.1721875 -1.31640625 9.359375 C-1 7 -1 7 -0.46484375 4.890625 C0.11937855 2.83894894 0.11937855 2.83894894 0 0 Z " fill="#10100D" transform="translate(9,12)"/>
<path d="M0 0 C0.66 0 1.32 0 2 0 C2 3.63 2 7.26 2 11 C3.32 11.66 4.64 12.32 6 13 C7.33333333 13.66666667 8.66666667 14.33333333 10 15 C10 15.66 10 16.32 10 17 C4.25 20 4.25 20 2 20 C2 19.34 2 18.68 2 18 C2.66 17.67 3.32 17.34 4 17 C3.34 16.34 2.68 15.68 2 15 C2.33 14.34 2.66 13.68 3 13 C2.01 12.67 1.02 12.34 0 12 C0 8.04 0 4.08 0 0 Z " fill="#362A03" transform="translate(11,11)"/>
<path d="M0 0 C2.81296623 1.40648311 4.5330209 2.98807877 6.625 5.3125 C1.875 8.3125 1.875 8.3125 -0.375 8.3125 C-0.375 7.3225 -0.375 6.3325 -0.375 5.3125 C-1.035 5.3125 -1.695 5.3125 -2.375 5.3125 C-2.375 4.6525 -2.375 3.9925 -2.375 3.3125 C-4.355 3.6425 -6.335 3.9725 -8.375 4.3125 C-3.2821618 -0.95009947 -3.2821618 -0.95009947 0 0 Z " fill="#E7C319" transform="translate(23.375,6.6875)"/>
<path d="M0 0 C0.33 0 0.66 0 1 0 C1.28781486 3.70961376 1.43732172 7.29876497 1 11 C-2.32052647 14.76924626 -5.3980348 15.88133591 -10.375 16.25 C-14.24577722 15.98304985 -16.02547539 15.4496085 -19 13 C-19.6328125 10.890625 -19.6328125 10.890625 -20 9 C-19.48050781 9.37253906 -18.96101563 9.74507812 -18.42578125 10.12890625 C-14.22733768 13.11522938 -14.22733768 13.11522938 -9.3125 14 C-6.7185836 12.87830642 -4.39799338 11.49064453 -2 10 C-1.34 10 -0.68 10 0 10 C0 6.7 0 3.4 0 0 Z " fill="#192412" transform="translate(32,22)"/>
<path d="M0 0 C0.66 0.33 1.32 0.66 2 1 C0 4 0 4 -2.625 4.6875 C-3.40875 4.790625 -4.1925 4.89375 -5 5 C-4.79375 5.9075 -4.5875 6.815 -4.375 7.75 C-3.96575217 11.29681455 -4.32445791 12.0212585 -6 15 C-6.38290462 16.99110401 -6.72604615 18.99100513 -7 21 C-6.34 21 -5.68 21 -5 21 C-4.34 22.65 -3.68 24.3 -3 26 C-3.99 25.67 -4.98 25.34 -6 25 C-6 24.01 -6 23.02 -6 22 C-6.66 22 -7.32 22 -8 22 C-8 17.05 -8 12.1 -8 7 C-7.34 7 -6.68 7 -6 7 C-5.9071875 6.1028125 -5.9071875 6.1028125 -5.8125 5.1875 C-4.66061101 2.08626042 -2.93240408 1.35891897 0 0 Z " fill="#072431" transform="translate(14,7)"/>
<path d="M0 0 C1.9375 0.8125 1.9375 0.8125 4 2 C5.18637743 5.55913229 5.14615346 8.798145 5.125 12.5 C5.12886719 13.17675781 5.13273437 13.85351562 5.13671875 14.55078125 C5.13062416 17.64073767 4.9844023 20.04679311 4 23 C3.01 23.33 2.02 23.66 1 24 C1 20.04 1 16.08 1 12 C1.33 12 1.66 12 2 12 C2 13.65 2 15.3 2 17 C2.66 17 3.32 17 4 17 C3.67 13.37 3.34 9.74 3 6 C2.01 6.33 1.02 6.66 0 7 C0 4.69 0 2.38 0 0 Z " fill="#041E2F" transform="translate(32,9)"/>
<path d="M0 0 C2.475 0.495 2.475 0.495 5 1 C5 7.93 5 14.86 5 22 C4.01 22 3.02 22 2 22 C2.495 13.09 2.495 13.09 3 4 C2.34 4 1.68 4 1 4 C0.67 2.68 0.34 1.36 0 0 Z " fill="#1478AD" transform="translate(35,10)"/>
<path d="M0 0 C4.82557822 0.02312577 7.12879921 1.28997628 10.8125 4.3125 C10.4825 5.6325 10.1525 6.9525 9.8125 8.3125 C7.8125 7.3125 7.8125 7.3125 6.5 5.875 C4.25938639 3.80035777 2.83140387 2.93000306 -0.1875 2.3125 C-2.78595048 3.37673024 -4.82954206 4.74052804 -7.1875 6.3125 C-4.81859836 0.15335573 -4.81859836 0.15335573 0 0 Z " fill="#202C17" transform="translate(21.1875,4.6875)"/>
<path d="M0 0 C0.33 0 0.66 0 1 0 C1.02690844 2.62506802 1.04679404 5.24986173 1.0625 7.875 C1.07087891 8.62136719 1.07925781 9.36773437 1.08789062 10.13671875 C1.11328125 15.7734375 1.11328125 15.7734375 0 18 C0.66 18.33 1.32 18.66 2 19 C-1.96 20.98 -5.92 22.96 -10 25 C-7.90900184 20.81800367 -7.00681267 20.00340633 -3 18 C-2.34 18 -1.68 18 -1 18 C-0.505 9.09 -0.505 9.09 0 0 Z " fill="#15668F" transform="translate(37,14)"/>
<path d="M0 0 C0 0.66 0 1.32 0 2 C1.65 2 3.3 2 5 2 C5 2.33 5 2.66 5 3 C3.824375 3.0825 2.64875 3.165 1.4375 3.25 C-3.15469785 3.79844431 -6.14249265 5.50869317 -10 8 C-9.9375 6.25 -9.9375 6.25 -9 4 C-6.29950956 1.99159505 -3.44873267 0 0 0 Z " fill="#146991" transform="translate(20,2)"/>
<path d="M0 0 C0 0.99 0 1.98 0 3 C-0.66 3 -1.32 3 -2 3 C-0.77190909 4.64555699 -0.77190909 4.64555699 1 6 C3.05396726 5.59070014 3.05396726 5.59070014 5 5 C5.66 5.66 6.32 6.32 7 7 C4 9 4 9 2.1875 8.875 C-0.84090724 7.6636371 -3.34224055 5.87251234 -6 4 C-4.03617993 2.49440461 -2.21736634 1.10868317 0 0 Z " fill="#D9BC26" transform="translate(19,28)"/>
<path d="M0 0 C2.9375 0.375 2.9375 0.375 6 1 C6.33 1.66 6.66 2.32 7 3 C5.68 3 4.36 3 3 3 C2.67 3.66 2.34 4.32 2 5 C1.67 4.01 1.34 3.02 1 2 C0.67 1.34 0.34 0.68 0 0 Z M0 4 C0.66 4.66 1.32 5.32 2 6 C1.67 6.66 1.34 7.32 1 8 C1.66 8 2.32 8 3 8 C3 8.66 3 9.32 3 10 C-1.875 8.25 -1.875 8.25 -3 6 C-2.01 6 -1.02 6 0 6 C0 5.34 0 4.68 0 4 Z " fill="#E7C513" transform="translate(18,16)"/>
<path d="M0 0 C0.33 0 0.66 0 1 0 C1.01458252 0.62044189 1.02916504 1.24088379 1.04418945 1.88012695 C1.11866588 4.69154633 1.21532564 7.50177749 1.3125 10.3125 C1.33505859 11.28896484 1.35761719 12.26542969 1.38085938 13.27148438 C1.41630859 14.20927734 1.45175781 15.14707031 1.48828125 16.11328125 C1.51446533 16.97735596 1.54064941 17.84143066 1.56762695 18.73168945 C2.07665372 21.40213987 2.92329908 22.31011183 5 24 C3.35 23.67 1.7 23.34 0 23 C0 15.41 0 7.82 0 0 Z " fill="#03263A" transform="translate(3,11)"/>
<path d="M0 0 C0.51949219 0.34933594 1.03898438 0.69867187 1.57421875 1.05859375 C6.87724314 4.54055504 6.87724314 4.54055504 13 6 C13 6.33 13 6.66 13 7 C8.0600659 7.29058436 4.90174327 7.21320034 1 4 C0.3671875 1.890625 0.3671875 1.890625 0 0 Z " fill="#1E2F19" transform="translate(12,31)"/>
<path d="M0 0 C3.05074215 -0.28780586 5.96183742 -0.45787911 9 0 C11.0625 2.5 11.0625 2.5 12 5 C11.278125 4.690625 10.55625 4.38125 9.8125 4.0625 C5.76455389 2.53327591 3.17102342 1.60965886 -1 3 C-0.67 2.01 -0.34 1.02 0 0 Z " fill="#05243C" transform="translate(18,0)"/>
<path d="M0 0 C0.99 0 1.98 0 3 0 C3 0.66 3 1.32 3 2 C4.32 2.33 5.64 2.66 7 3 C6.67 4.65 6.34 6.3 6 8 C5.34 8 4.68 8 4 8 C2 5 2 5 2 2 C1.34 2 0.68 2 0 2 C0 1.34 0 0.68 0 0 Z " fill="#0C121A" transform="translate(7,26)"/>
<path d="M0 0 C0.33 0 0.66 0 1 0 C1 1.65 1 3.3 1 5 C1.66 5 2.32 5 3 5 C3 6.98 3 8.96 3 11 C2.01 11.33 1.02 11.66 0 12 C0 8.04 0 4.08 0 0 Z " fill="#0B1921" transform="translate(33,21)"/>
<path d="M0 0 C3.99500618 1.3697164 6.80009492 3.25722422 10 6 C6.87709365 5.51421457 4.00419641 5.0013988 1 4 C0.3125 1.9375 0.3125 1.9375 0 0 Z " fill="#031E27" transform="translate(8,35)"/>
</svg>
